<?xml version="1.0" encoding="UTF-8"?>
<svg id="Layer_1" data-name="Layer 1" xmlns="http://www.w3.org/2000/svg" viewBox="0 0 428.72 354.5">
  <defs>
    <style>
      .cls-1 {
        fill: #1e3d89;
      }
    </style>
  </defs>
  <path class="cls-1" d="M158.61,19.08c19.6-.16,39.21-.03,58.81-.07,6.68,.06,13.41-.35,20.03,.86,23.16,3.97,44.35,15.66,62.37,30.43,20.28,16.87,33.39,41.1,39.79,66.44,1.75,7.43,3.47,14.97,3.49,22.64,.03,2,.29,4,.33,6.01-.32,11.42-.76,22.99-4,34.03-4.1,13.23-9.14,26.32-16.73,37.99-12.56,19.84-31.37,35.14-52.29,45.51-17.72,9.13-37.89,13.1-57.74,12.4-17.41-.69-34.78-4.3-50.83-11.15-11.42-5.56-22.05-12.71-31.71-20.93-9.88-8.29-18.58-18.05-25.29-29.08-5.25-8.8-9.15-18.34-12.39-28.04-3.93-12.39-6.49-25.34-6.15-38.39,12.75,0,25.5,0,38.25,0,.53,22.29,8.98,44.6,24.35,60.91,9.21,9.45,20.24,17.22,32.54,22.09,5.05,2.09,10.32,3.54,15.62,4.84,.03-59.66,.02-119.33,0-178.99-12.82,0-25.64,.09-38.46-.05,.03-12.48,.05-24.97,0-37.45Zm77.07,215.8c13.19-3.48,25.7-9.63,36.31-18.21,7.93-6.51,15.23-14.1,20.02-23.25,10.76-16.64,14.62-37.09,12.66-56.66-1.57-14.05-6.7-27.62-14.43-39.44-12.33-19.18-32.48-32.87-54.55-38.25-.03,58.6,.02,117.21,0,175.81Z"/>
  <path class="cls-1" d="M19.99,316.28c.76-.02,1.53-.04,2.29-.05,.09,4.11,.08,8.22,.02,12.33-.14,2.09-.31,4.62-2.16,5.96-1.77,1.15-3.98,.75-5.8-.03,.29-.46,.86-1.38,1.14-1.84,1.69,.76,4.2,.37,4.34-1.87,.41-4.81,.05-9.67,.17-14.5Z"/>
  <path class="cls-1" d="M49.21,316.26c2.98,.01,5.95,0,8.93-.01,.04,.71,.08,1.43,.12,2.14-2.22,.02-4.45,.03-6.67,0,0,1.73,0,3.46,0,5.2,2.14-.01,4.28-.01,6.42-.02,0,.72,0,1.44,.03,2.16-2.15,.01-4.3,.02-6.45-.01,0,3.06,.03,6.13-.07,9.2-.77-.01-1.54-.03-2.3-.03,.01-6.21-.02-12.42,0-18.63Z"/>
  <path class="cls-1" d="M67.17,316.3c5.74-1.81,12.18,3,12.23,8.98,.45,5.88-5.48,11.04-11.24,9.89-5.52-.62-9.4-6.69-7.86-11.98,1.03-3.17,3.5-6.11,6.87-6.89Zm.61,2.03c-2.59,.78-4.84,2.92-5.33,5.64-.95,3.92,1.88,8.17,5.79,8.95,4.27,1.02,8.69-2.71,8.84-7.01,.39-4.73-4.69-9.01-9.3-7.58Z"/>
  <path class="cls-1" d="M87.81,316.3c5.48-1.68,11.71,2.54,12.16,8.25,.75,4.85-2.94,9.74-7.73,10.56-4.88,1.09-10.29-2.18-11.31-7.13-1.39-4.91,1.99-10.46,6.88-11.68Zm.66,2.03c-2.78,.79-5.12,3.21-5.44,6.15-.71,4,2.46,8.09,6.46,8.55,4.12,.6,8.09-3.03,8.24-7.11,.37-4.74-4.65-9-9.26-7.59Z"/>
  <path class="cls-1" d="M125.81,316.25c2.59,.05,5.32-.12,7.76,.95,3.4,1.78,3.1,7.55-.35,9.1-1.55,.81-3.34,.7-5.02,.82,0,2.61,.03,5.22-.09,7.83-.77-.03-1.55-.06-2.31-.09,.05-6.2,.01-12.41,.01-18.61Zm2.4,2.06c-.04,2.29-.04,4.58,.03,6.87,1.45-.25,3.03-.19,4.32-.99,1.9-1.21,1.59-4.68-.61-5.37-1.22-.38-2.49-.39-3.74-.51Z"/>
  <path class="cls-1" d="M137.6,316.25c.73-.01,1.45-.01,2.18-.01,.11,4.12-.19,8.25,.18,12.36,.17,1.96,1.35,4.26,3.56,4.38,2.38,.52,4.93-1.18,5.1-3.66,.35-4.35,0-8.73,.23-13.09,.75,.01,1.51,.03,2.28,.05-.03,3.88,.05,7.77,0,11.64-.07,2.29-.85,4.8-2.84,6.11-2.34,1.75-5.88,1.7-8.1-.23-2.14-1.42-2.56-4.17-2.6-6.53-.04-3.67,0-7.35,.02-11.02Z"/>
  <path class="cls-1" d="M167.77,316.28c.75-.02,1.51-.04,2.28-.05,.21,5.5,0,11.01,.11,16.52,1.87-.01,3.74,0,5.62,.01,0,.71-.02,1.42-.02,2.13-2.66,.01-5.33,.02-7.99,.01,.02-6.21,0-12.41,0-18.62Z"/>
  <path class="cls-1" d="M177.1,316.27c.73-.01,1.47-.02,2.21-.03,.05,6.21,.02,12.44,.02,18.65-.75,.01-1.5,.02-2.24,.04,.03-6.22-.01-12.44,0-18.66Z"/>
  <path class="cls-1" d="M184.66,319.14c2.9-3.36,8.1-4.03,11.98-2.04,0,.89,0,1.78,.03,2.67-2.71-2.05-6.77-2.45-9.42-.11-3.8,2.9-3.69,9.5,.41,12.08,2.62,2.18,6.47,1.45,9.01-.48-.02,.91-.03,1.83-.03,2.76-3.34,1.66-7.62,1.73-10.62-.68-4.54-3.09-5.09-10.26-1.36-14.2Z"/>
  <path class="cls-1" d="M211.22,317.11c2.92-1.53,6.5-1.49,9.42,.01,0,.89,0,1.78,0,2.68-2.7-2.1-6.82-2.48-9.46-.09-3.72,2.94-3.64,9.43,.45,12.02,2.6,2.19,6.5,1.49,9.01-.49,0,.93,0,1.85,0,2.78-4.34,2.38-10.26,1.17-12.95-3.08-3.06-4.52-1.36-11.34,3.53-13.83Z"/>
  <path class="cls-1" d="M229.02,316.3c5.74-1.79,12.16,2.97,12.22,8.95,.57,6.15-5.89,11.36-11.8,9.8-5.47-.97-8.99-7.25-7.12-12.46,1.2-2.89,3.52-5.56,6.7-6.29Zm.65,2.03c-2.12,.69-4.13,2.15-4.92,4.32-1.71,3.71,.35,8.42,4.12,9.89,4.25,1.93,9.48-1.43,10-5.93,.92-4.97-4.34-9.79-9.2-8.28Z"/>
  <path class="cls-1" d="M242.34,334.9c1.28-6.41,2.42-12.86,3.82-19.25,2.14,4.81,4.21,9.64,6.32,14.46,2.17-4.8,4.15-9.69,6.39-14.46,1.29,6.41,2.61,12.82,3.78,19.26-.79,0-1.57,0-2.35,.01-.75-3.96-1.37-7.94-2.16-11.88-2.24,3.89-3.71,8.18-5.64,12.24-1.91-4.22-3.7-8.5-5.69-12.68-.58,4.11-1.43,8.19-2.07,12.29-.6-.01-1.8,0-2.4,0Z"/>
  <path class="cls-1" d="M264.35,316.25c2.58,.04,5.31-.13,7.73,.95,3.26,1.68,3.18,7.07,.11,8.88-1.63,1.03-3.62,.94-5.46,1.05,.01,2.61,.03,5.23-.12,7.85-.77-.04-1.53-.08-2.27-.11,.03-6.22,.02-12.42,0-18.62Zm2.4,2.06c-.04,2.29-.03,4.58,.02,6.87,1.45-.25,3.04-.17,4.33-.98,1.9-1.2,1.57-4.63-.58-5.36-1.22-.39-2.51-.41-3.77-.53Z"/>
  <path class="cls-1" d="M281.2,315.79c3.33,6.17,5.94,12.74,8.93,19.1-.81,0-1.63,.01-2.43,.02-.69-1.57-1.41-3.12-2.14-4.66-2.84,0-5.68,.01-8.51-.01-.69,1.55-1.41,3.1-2.1,4.66-.84,0-1.67,.01-2.48,.01,2.86-6.4,5.79-12.76,8.73-19.12Zm.1,4.8c-1.09,2.49-2.2,4.98-3.25,7.48,2.18,.03,4.36,.03,6.54-.01-1.08-2.5-2.2-4.98-3.29-7.47Z"/>
  <path class="cls-1" d="M291.49,315.42c4.64,4.87,9.31,9.7,13.93,14.59-.01-4.59-.01-9.18,.01-13.77,.76,.01,1.53,.01,2.3,.03,.02,6.41-.02,12.83,.02,19.24-4.72-4.72-9.23-9.65-13.9-14.42-.05,4.6,0,9.21-.03,13.81-.77-.01-1.54-.01-2.29-.01-.04-6.48,0-12.97-.04-19.47Z"/>
  <path class="cls-1" d="M309.2,316.28c.83-.02,1.68-.03,2.52-.03,1.62,2.58,2.92,5.36,4.7,7.85,1.5-2.62,2.98-5.24,4.52-7.84,.82,0,1.65,.01,2.48,.03-1.69,3.66-4.1,6.93-5.83,10.56-.27,2.66-.03,5.36-.11,8.04-.59,0-1.76,.01-2.34,.01-.07-2.7,.13-5.4-.07-8.09-1.74-3.62-4.1-6.92-5.87-10.53Z"/>
  <path class="cls-1" d="M334.31,316.25c.75,0,1.51-.01,2.28,0,.15,5.5,.01,10.99,.09,16.49,1.87,0,3.74,0,5.61,.01-.01,.71,0,1.43,.01,2.15-2.66,0-5.32-.01-7.99,.02-.02-6.22-.02-12.45,0-18.67Z"/>
  <path class="cls-1" d="M348.26,334.89c1.23-6.43,2.5-12.86,3.76-19.28,2.21,4.8,4.21,9.68,6.41,14.49,2.12-4.83,4.15-9.7,6.35-14.5,1.29,6.42,2.58,12.85,3.78,19.3-.79,0-1.59,.01-2.37,.03-.73-4.1-1.45-8.21-2.18-12.31-1.9,4.21-3.78,8.43-5.58,12.7-1.9-4.28-3.84-8.55-5.67-12.86-.59,4.16-1.5,8.28-2.11,12.44-.6-.01-1.8-.01-2.39-.01Z"/>
  <path class="cls-1" d="M370.28,316.25c.73,0,1.47-.01,2.22-.01-.01,6.22,.05,12.44-.01,18.66-.75-.01-1.49-.01-2.21,0-.01-6.21-.05-12.43,0-18.65Z"/>
  <path class="cls-1" d="M374.67,316.25c3.68,.01,7.37,.01,11.07,.01-.01,.71,0,1.43,.02,2.14-1.47-.01-2.92-.01-4.37-.03-.07,5.5-.03,11.01-.02,16.52-.6,0-1.79-.01-2.38-.01,.01-5.5,.03-11,0-16.49-1.51,0-3-.01-4.48-.01,.04-.71,.1-1.42,.16-2.13Z"/>
  <path class="cls-1" d="M387.59,316.26c3.32,.01,6.65,0,9.98,0-.01,.71-.01,1.42,0,2.13-2.54,.03-5.07,.03-7.6-.01-.03,1.73-.03,3.46-.03,5.2,2.48-.02,4.97-.02,7.46,.02-.01,.7,0,1.4,.01,2.1-2.49,.03-4.98,.04-7.47,.01-.03,2.34-.03,4.68,.01,7.02,2.54-.01,5.08-.01,7.62,.01-.01,.71-.01,1.43-.01,2.14-3.32,.01-6.65,0-9.97,.02-.02-6.2-.03-12.42,0-18.64Z"/>
  <path class="cls-1" d="M25.08,316.25c3.77,.01,8.05-.24,11.12,2.33,4.66,3.59,4.12,12-1.13,14.79-3,1.79-6.62,1.49-9.96,1.56-.06-6.22-.03-12.45-.03-18.68Zm2.31,2.08c0,4.83-.01,9.66,.01,14.49,2.31-.23,4.83-.17,6.83-1.53,3.54-2.31,3.69-8.01,.77-10.87-2.17-1.68-4.98-1.87-7.61-2.09Z"/>
  <path class="cls-1" d="M102.35,334.91c-.01-6.23-.03-12.45,.01-18.66,3.78,.03,8.08-.23,11.15,2.38,4.5,3.49,4.1,11.52-.77,14.5-3.05,2.05-6.89,1.77-10.39,1.78Zm2.31-16.56c0,4.82-.01,9.63,.01,14.45,2.78-.17,5.95-.27,7.99-2.45,2.24-2.61,2.22-6.93-.01-9.54-2.12-2.05-5.22-2.26-7.99-2.46Z"/>
  <path class="cls-1" d="M154.3,316.25c2.74,.09,6.12-.2,8.12,2.09,1.65,1.98,1.09,5.08-.87,6.65,1.51,.66,3,1.7,3.34,3.42,.79,2.22-.52,4.7-2.58,5.65-2.51,1.16-5.34,.77-8.01,.85-.01-6.22-.01-12.44,0-18.66Zm2.33,2.06c-.03,2.1-.03,4.2,0,6.3,.98-.15,2-.17,2.97-.45,1.87-.85,2.09-3.69,.65-5.04-1.06-.75-2.42-.67-3.63-.81Zm-.01,8.03c0,2.14,0,4.28,0,6.43,1.77-.11,3.89,.31,5.3-1.05,1.01-.87,.87-2.44,.5-3.58-1.27-1.88-3.81-1.68-5.8-1.8Z"/>
  <path class="cls-1" d="M343.61,334.89c.02-6.21-.02-12.43,.02-18.64,.56,.01,1.67,.02,2.22,.03,.01,6.21,.01,12.42-.01,18.63-.74-.02-1.49-.02-2.23-.02Z"/>
  <path class="cls-1" d="M400.08,334.9c-.01-6.22-.01-12.44,.01-18.66,3.76,.05,8.05-.23,11.12,2.36,4.66,3.57,4.11,11.98-1.11,14.77-3.01,1.79-6.65,1.55-10.02,1.53Zm2.31-16.56c.01,4.82-.01,9.63,.01,14.45,2.92-.07,6.27-.36,8.29-2.78,1.92-2.66,1.83-6.71-.32-9.21-2.11-2.08-5.22-2.21-7.98-2.46Z"/>
</svg>