<?xml version="1.0" encoding="utf-8"?>
<!-- Generator: Adobe Illustrator 26.5.0, SVG Export Plug-In . SVG Version: 6.00 Build 0)  -->
<svg version="1.1" id="Layer_1" xmlns="http://www.w3.org/2000/svg" xmlns:xlink="http://www.w3.org/1999/xlink" x="0px" y="0px"
	 viewBox="0 0 90 90" style="enable-background:new 0 0 90 90;" xml:space="preserve">
<style type="text/css">
	.st0{fill:#1E3D89;}
</style>
<g>
	<path id="Path_54402" class="st0" d="M34.79,16.03c3.59-0.03,7.18-0.01,10.77-0.01c1.23-0.05,2.45,0,3.67,0.16
		c4.23,0.84,8.16,2.76,11.43,5.57c3.65,3.19,6.2,7.45,7.29,12.17c0.37,1.35,0.58,2.75,0.64,4.15c0.01,0.37,0.05,0.73,0.06,1.1
		c0.02,2.1-0.22,4.2-0.73,6.23c-0.7,2.45-1.73,4.79-3.06,6.96c-2.37,3.6-5.68,6.48-9.58,8.33c-3.28,1.65-6.92,2.43-10.58,2.27
		c-3.2-0.11-6.36-0.8-9.31-2.04c-2.09-1.03-4.04-2.32-5.81-3.83c-1.82-1.51-3.39-3.31-4.63-5.33c-0.94-1.63-1.7-3.35-2.28-5.14
		c-0.76-2.27-1.14-4.64-1.13-7.03c2.34,0,4.67,0,7.01,0c0.08,4.14,1.66,8.11,4.46,11.16c1.68,1.75,3.71,3.13,5.96,4.05
		c0.93,0.37,1.89,0.66,2.86,0.89c0.01-10.93,0.01-21.86,0-32.79c-2.35,0-4.69,0.02-7.05-0.01C34.79,20.61,34.79,18.32,34.79,16.03
		 M48.9,55.57c2.43-0.63,4.69-1.77,6.65-3.34c1.5-1.16,2.74-2.61,3.67-4.26c1.92-3.1,2.74-6.76,2.32-10.38
		c-0.82-6.92-5.86-12.6-12.64-14.23C48.9,34.09,48.9,44.83,48.9,55.57"/>
	<path id="Path_54403" class="st0" d="M2.97,69.84c0.16,0,0.33-0.01,0.49-0.01c0.02,0.89,0.02,1.78,0,2.67
		c0.04,0.48-0.13,0.95-0.47,1.29c-0.39,0.2-0.86,0.2-1.25-0.01c0.06-0.1,0.19-0.3,0.25-0.4c0.37,0.16,0.91,0.08,0.94-0.4
		C3.02,71.94,2.95,70.88,2.97,69.84"/>
	<path id="Path_54404" class="st0" d="M9.29,69.84c0.64,0,1.29,0,1.93,0l0.03,0.46c-0.48,0-0.96,0.01-1.44,0c0,0.37,0,0.75,0,1.12
		h1.39c0,0.16,0,0.31,0.01,0.47c-0.46,0-0.93,0-1.39,0c0,0.66,0.01,1.33-0.02,1.99c-0.17,0-0.33-0.01-0.5-0.01
		C9.29,72.53,9.29,71.19,9.29,69.84"/>
	<path id="Path_54405" class="st0" d="M13.17,69.85c1.11-0.29,2.26,0.37,2.55,1.48c0.29,1.11-0.37,2.26-1.48,2.55
		c-1.11,0.29-2.26-0.37-2.55-1.48c-0.09-0.35-0.09-0.71,0-1.06C11.89,70.62,12.45,70.06,13.17,69.85 M13.3,70.29
		c-0.87,0.22-1.39,1.1-1.17,1.96c0.22,0.87,1.1,1.39,1.96,1.17c0.69-0.17,1.19-0.78,1.22-1.5c0.03-0.9-0.68-1.66-1.58-1.68
		C13.59,70.24,13.44,70.25,13.3,70.29"/>
	<path id="Path_54406" class="st0" d="M17.64,69.85c1.12-0.3,2.27,0.37,2.57,1.49c0.03,0.1,0.04,0.19,0.06,0.29
		c0.13,1.15-0.7,2.19-1.85,2.32c-1.04,0.12-2.01-0.56-2.27-1.57C15.88,71.27,16.54,70.15,17.64,69.85 M17.78,70.28
		c-0.62,0.17-1.08,0.69-1.18,1.33c-0.14,0.87,0.45,1.69,1.32,1.83c0.87,0.14,1.69-0.45,1.83-1.32c0.01-0.07,0.02-0.13,0.02-0.2
		c0.03-0.9-0.67-1.65-1.57-1.68C18.07,70.23,17.92,70.25,17.78,70.28"/>
	<path id="Path_54407" class="st0" d="M25.85,69.84c0.57-0.04,1.14,0.03,1.68,0.21c0.53,0.35,0.68,1.06,0.33,1.59
		c-0.1,0.16-0.24,0.29-0.41,0.38c-0.35,0.13-0.72,0.19-1.09,0.18c0,0.56,0.01,1.13-0.02,1.69l-0.5-0.02
		C25.86,72.52,25.85,71.18,25.85,69.84 M26.37,70.28c-0.01,0.49-0.01,0.99,0.01,1.49c0.32-0.01,0.64-0.08,0.93-0.21
		c0.3-0.23,0.36-0.65,0.13-0.95c-0.07-0.09-0.16-0.16-0.26-0.21C26.91,70.33,26.64,70.29,26.37,70.28"/>
	<path id="Path_54408" class="st0" d="M28.4,69.84c0.16,0,0.31,0,0.47,0c0.02,0.89-0.04,1.78,0.04,2.67
		c0.04,0.42,0.29,0.92,0.77,0.95c0.49,0.11,0.98-0.2,1.09-0.7c0.01-0.03,0.01-0.06,0.02-0.09c0.08-0.94,0-1.89,0.05-2.83
		c0.16,0,0.33,0.01,0.49,0.01c-0.01,0.84,0.01,1.68,0,2.52c0.02,0.51-0.21,1-0.61,1.32c-0.53,0.38-1.25,0.36-1.75-0.05
		c-0.41-0.35-0.62-0.88-0.56-1.41C28.39,71.43,28.4,70.63,28.4,69.84"/>
	<path id="Path_54409" class="st0" d="M34.93,69.84c0.16,0,0.33-0.01,0.49-0.01c0.05,1.19,0,2.38,0.02,3.57c0.4,0,0.81,0,1.21,0
		c0,0.15,0,0.31,0,0.46c-0.58,0-1.15,0-1.73,0C34.93,72.52,34.93,71.18,34.93,69.84"/>
	<path id="Path_54410" class="st0" d="M36.94,69.84l0.48-0.01c0.01,1.34,0,2.69,0,4.03c-0.16,0-0.32,0-0.49,0.01
		C36.94,72.53,36.94,71.19,36.94,69.84"/>
	<path id="Path_54411" class="st0" d="M38.58,70.46c0.67-0.71,1.73-0.89,2.59-0.44c0,0.19,0,0.39,0.01,0.58
		c-0.59-0.48-1.44-0.49-2.04-0.02c-0.7,0.58-0.8,1.62-0.22,2.33c0.09,0.11,0.19,0.2,0.3,0.28c0.6,0.41,1.39,0.37,1.94-0.1
		c0,0.19-0.01,0.39-0.01,0.6c-0.73,0.4-1.62,0.34-2.3-0.15c-0.92-0.7-1.1-2.02-0.39-2.95C38.5,70.55,38.54,70.5,38.58,70.46"/>
	<path id="Path_54412" class="st0" d="M44.32,70.02c0.64-0.33,1.4-0.33,2.04,0c0,0.19,0,0.39,0,0.58c-0.59-0.49-1.44-0.5-2.04-0.02
		c-0.7,0.59-0.78,1.63-0.19,2.33c0.09,0.1,0.18,0.19,0.29,0.27c0.6,0.42,1.4,0.37,1.94-0.11c0,0.2,0,0.4,0,0.6
		c-0.97,0.53-2.18,0.24-2.8-0.67c-0.63-0.99-0.33-2.3,0.66-2.93C44.26,70.06,44.29,70.04,44.32,70.02"/>
	<path id="Path_54413" class="st0" d="M48.17,69.85c1.11-0.29,2.25,0.37,2.55,1.49c0.29,1.11-0.37,2.25-1.49,2.55
		c-1.11,0.29-2.25-0.37-2.55-1.49c-0.1-0.39-0.09-0.8,0.04-1.19C46.96,70.55,47.5,70.04,48.17,69.85 M48.31,70.29
		c-0.86,0.24-1.37,1.13-1.13,2c0.13,0.49,0.49,0.89,0.96,1.07c0.83,0.31,1.76-0.11,2.08-0.94c0.31-0.83-0.11-1.76-0.94-2.08
		C48.97,70.22,48.63,70.21,48.31,70.29"/>
	<path id="Path_54414" class="st0" d="M51.05,73.87c0.28-1.39,0.52-2.78,0.83-4.16c0.46,1.04,0.91,2.08,1.37,3.13
		c0.47-1.04,0.9-2.1,1.38-3.13c0.28,1.39,0.56,2.77,0.82,4.16c-0.17,0-0.34,0-0.51,0c-0.16-0.86-0.29-1.72-0.47-2.57
		c-0.49,0.84-0.8,1.77-1.22,2.65c-0.41-0.91-0.8-1.84-1.23-2.74c-0.13,0.89-0.31,1.77-0.45,2.66
		C51.44,73.86,51.18,73.86,51.05,73.87"/>
	<path id="Path_54415" class="st0" d="M55.81,69.84c0.57-0.05,1.13,0.02,1.67,0.21c0.53,0.35,0.69,1.06,0.34,1.6
		c-0.08,0.13-0.19,0.24-0.32,0.32c-0.37,0.17-0.77,0.25-1.18,0.23c0,0.56,0.01,1.13-0.03,1.7c-0.17-0.01-0.33-0.02-0.49-0.02
		C55.81,72.52,55.81,71.18,55.81,69.84 M56.32,70.28c-0.01,0.5-0.01,0.99,0,1.49c0.32-0.01,0.64-0.08,0.94-0.21
		c0.3-0.23,0.36-0.65,0.13-0.95c-0.07-0.09-0.15-0.16-0.25-0.21C56.87,70.33,56.59,70.29,56.32,70.28"/>
	<path id="Path_54416" class="st0" d="M59.45,69.74c0.72,1.33,1.28,2.75,1.93,4.13c-0.17,0-0.35,0-0.53,0
		c-0.15-0.34-0.31-0.67-0.46-1.01c-0.61,0-1.23,0-1.84,0c-0.15,0.34-0.31,0.67-0.45,1.01h-0.54C58.18,72.48,58.82,71.11,59.45,69.74
		 M59.47,70.77c-0.24,0.54-0.48,1.08-0.7,1.62c0.47,0.01,0.94,0.01,1.41,0C59.95,71.85,59.71,71.31,59.47,70.77"/>
	<path id="Path_54417" class="st0" d="M61.68,69.66c1,1.05,2.01,2.1,3.01,3.15c0-0.99,0-1.99,0-2.98c0.16,0,0.33,0,0.5,0.01
		c0,1.39,0,2.77,0,4.16c-1.02-1.02-2-2.09-3.01-3.12c-0.01,0.99,0,1.99-0.01,2.99c-0.17,0-0.33,0-0.49,0
		C61.67,72.47,61.68,71.06,61.68,69.66"/>
	<path id="Path_54418" class="st0" d="M65.51,69.84c0.18,0,0.36-0.01,0.55-0.01c0.35,0.56,0.63,1.16,1.02,1.7
		c0.32-0.57,0.64-1.13,0.98-1.7c0.18,0,0.36,0,0.54,0.01c-0.37,0.79-0.89,1.5-1.26,2.28c-0.06,0.58-0.01,1.16-0.02,1.74h-0.51
		c-0.02-0.58,0.03-1.17-0.02-1.75C66.4,71.33,65.89,70.62,65.51,69.84"/>
	<path id="Path_54419" class="st0" d="M70.94,69.84c0.16,0,0.33,0,0.49,0c0.03,1.19,0,2.38,0.02,3.57c0.4,0,0.81,0,1.21,0
		c0,0.15,0,0.31,0,0.46c-0.58,0-1.15,0-1.73,0C70.93,72.52,70.93,71.18,70.94,69.84"/>
	<path id="Path_54420" class="st0" d="M73.95,73.86c0.27-1.39,0.54-2.78,0.81-4.17c0.48,1.04,0.91,2.09,1.39,3.13
		c0.46-1.04,0.9-2.1,1.37-3.14c0.28,1.39,0.56,2.78,0.82,4.17c-0.17,0-0.34,0-0.51,0.01c-0.16-0.89-0.32-1.77-0.47-2.66
		c-0.41,0.91-0.82,1.82-1.21,2.75c-0.41-0.93-0.83-1.85-1.23-2.78c-0.13,0.9-0.32,1.79-0.46,2.69
		C74.34,73.87,74.08,73.87,73.95,73.86"/>
	<path id="Path_54421" class="st0" d="M78.72,69.84h0.48c0,1.35,0.01,2.69,0,4.03c-0.16,0-0.32,0-0.48,0
		C78.72,72.53,78.71,71.18,78.72,69.84"/>
	<path id="Path_54422" class="st0" d="M79.67,69.84c0.8,0,1.59,0,2.39,0c0,0.15,0,0.31,0,0.46c-0.32,0-0.63,0-0.94-0.01
		c-0.02,1.19-0.01,2.38,0,3.57H80.6c0-1.19,0.01-2.38,0-3.57h-0.97C79.64,70.14,79.65,69.99,79.67,69.84"/>
	<path id="Path_54423" class="st0" d="M82.46,69.84c0.72,0,1.44,0,2.16,0c0,0.15,0,0.31,0,0.46c-0.55,0.01-1.1,0.01-1.64,0
		c-0.01,0.37-0.01,0.75-0.01,1.12c0.54,0,1.07,0,1.61,0c0,0.15,0,0.3,0,0.45c-0.54,0.01-1.08,0.01-1.62,0
		c-0.01,0.51-0.01,1.01,0,1.52c0.55,0,1.1,0,1.65,0c0,0.15,0,0.31,0,0.46c-0.72,0-1.44,0-2.16,0c0-1.34,0-2.68,0-4.03"/>
	<path id="Path_54424" class="st0" d="M4.07,69.84c0.84-0.12,1.69,0.06,2.4,0.5c0.83,0.72,0.92,1.99,0.2,2.82
		c-0.13,0.15-0.28,0.27-0.44,0.38c-0.68,0.3-1.42,0.41-2.15,0.34C4.07,72.53,4.07,71.18,4.07,69.84 M4.57,70.29
		c0,1.04,0,2.09,0,3.13c0.51,0.02,1.02-0.1,1.48-0.33c0.69-0.54,0.81-1.53,0.28-2.22c-0.03-0.04-0.07-0.09-0.11-0.13
		C5.72,70.43,5.15,70.27,4.57,70.29"/>
	<path id="Path_54425" class="st0" d="M20.78,73.87c0-1.35-0.01-2.69,0-4.03c0.84-0.12,1.69,0.07,2.41,0.51
		c0.83,0.73,0.91,1.99,0.18,2.82c-0.1,0.12-0.22,0.22-0.35,0.31C22.33,73.84,21.55,73.97,20.78,73.87 M21.28,70.29
		c0,1.04,0,2.08,0,3.12c0.62,0.05,1.24-0.14,1.73-0.53c0.48-0.6,0.48-1.46,0-2.06C22.51,70.45,21.9,70.26,21.28,70.29"/>
	<path id="Path_54426" class="st0" d="M32.01,69.84c0.59,0.02,1.32-0.04,1.76,0.45c0.34,0.45,0.25,1.09-0.19,1.44
		c0.35,0.11,0.62,0.39,0.72,0.74c0.15,0.49-0.09,1.01-0.56,1.22c-0.56,0.18-1.15,0.24-1.73,0.18
		C32.01,72.53,32.01,71.18,32.01,69.84 M32.52,70.28c-0.01,0.45-0.01,0.91,0,1.36c0.22-0.02,0.43-0.05,0.64-0.1
		c0.33-0.19,0.44-0.62,0.25-0.95c-0.03-0.05-0.07-0.1-0.11-0.14C33.06,70.33,32.79,70.27,32.52,70.28 M32.51,72.02
		c0,0.46,0,0.93,0,1.39c0.38-0.02,0.84,0.07,1.15-0.23c0.18-0.22,0.23-0.52,0.11-0.78C33.49,72,32.94,72.04,32.51,72.02"/>
	<path id="Path_54427" class="st0" d="M72.95,73.87c0-1.34,0-2.69,0-4.03l0.48,0.01c0,1.34,0,2.69,0,4.03
		C73.27,73.87,73.11,73.87,72.95,73.87"/>
	<path id="Path_54428" class="st0" d="M85.16,73.87c0-1.35,0-2.69,0-4.03c0.84-0.11,1.69,0.07,2.4,0.51
		c0.83,0.72,0.92,1.99,0.2,2.82c-0.13,0.15-0.27,0.27-0.44,0.38C86.65,73.84,85.9,73.96,85.16,73.87 M85.66,70.29
		c0,1.04,0,2.08,0,3.12c0.66,0.07,1.31-0.15,1.79-0.6c0.42-0.61,0.39-1.42-0.07-1.99C86.88,70.45,86.27,70.26,85.66,70.29"/>
</g>
</svg>
